<svg width="40px" height="40px" aria-hidden="true" focusable="false" xmlns="http://www.w3.org/2000/svg" viewBox=" -4 0 30 30" version="1.1" class="ui-components-1btrzgl" style="
"><path d="M21 9.57622C21 9.38752 20.8113 9.19882 20.5471 9.12332L17.3771 7.95332C16.8487 7.72682 16.2449 7.99102 16.2449 8.36852V22.1634C16.2598 22.271 16.3024 22.3728 16.3686 22.4588C16.4348 22.5449 16.5222 22.6122 16.6223 22.6541L19.8681 23.8241C20.3587 24.0128 21.0003 23.7486 21.0003 23.3334L21 9.57622ZM12.9588 20.0874C12.9588 19.8987 12.7701 19.71 12.5059 19.6345L9.33595 18.4645C8.80765 18.238 8.20375 18.5022 8.20375 18.8796V27.4847C8.21862 27.5922 8.26124 27.694 8.32742 27.7801C8.39359 27.8661 8.48104 27.9335 8.58115 27.9754L11.8269 29.1454C12.3175 29.3341 12.9591 29.0699 12.9591 28.6547L12.9588 20.0874ZM12.9588 2.49952C12.9588 2.31082 12.7701 2.12212 12.5059 2.04662L9.33595 0.876622C8.80765 0.650122 8.20375 0.914322 8.20375 1.29172V9.89682C8.21862 10.0043 8.26124 10.1061 8.32742 10.1922C8.39359 10.2782 8.48104 10.3456 8.58115 10.3875L11.8269 11.5575C12.3175 11.7462 12.9591 11.482 12.9591 11.0668L12.9588 2.49952ZM4.95835 1.83952C4.95835 1.65072 4.76965 1.46202 4.50545 1.38662L1.33545 0.216622C0.807147 -0.00987765 0.203247 0.254322 0.203247 0.631722V28.1828C0.218104 28.2903 0.260723 28.3921 0.326902 28.4782C0.393081 28.5642 0.480536 28.6315 0.580647 28.6734L3.82645 29.8434C4.31705 30.0321 4.95865 29.7679 4.95865 29.3528L4.95835 1.83952Z"></path></svg>